<svg xmlns="http://www.w3.org/2000/svg" viewBox="0 0 400 300" preserveAspectRatio="xMidYMid slice"><defs><linearGradient id="ltSky" x1="0" y1="0" x2="0" y2="1"><stop offset="0" stop-color="#7fb8e6"/><stop offset="1" stop-color="#f6ead2"/></linearGradient><linearGradient id="ltRiver" x1="0" y1="0" x2="0" y2="1"><stop offset="0" stop-color="#4f9bb8"/><stop offset="1" stop-color="#8ec5d2"/></linearGradient></defs><rect width="400" height="300" fill="url(#ltSky)"/><rect y="118" width="400" height="34" fill="url(#ltRiver)"/><rect x="180" y="122" width="220" height="4" fill="#c2503f"/><path d="M230 122 V60 M330 122 V60" stroke="#c2503f" stroke-width="4"/><path d="M180 122 Q230 56 280 100 Q330 56 400 122" fill="none" stroke="#c2503f" stroke-width="2"/><line x1="190" y1="122" x2="190" y2="116" stroke="#c2503f" stroke-width=".8" opacity=".7"/><line x1="204" y1="122" x2="204" y2="107" stroke="#c2503f" stroke-width=".8" opacity=".7"/><line x1="218" y1="122" x2="218" y2="99" stroke="#c2503f" stroke-width=".8" opacity=".7"/><line x1="232" y1="122" x2="232" y2="92" stroke="#c2503f" stroke-width=".8" opacity=".7"/><line x1="246" y1="122" x2="246" y2="86" stroke="#c2503f" stroke-width=".8" opacity=".7"/><line x1="260" y1="122" x2="260" y2="82" stroke="#c2503f" stroke-width=".8" opacity=".7"/><line x1="274" y1="122" x2="274" y2="79" stroke="#c2503f" stroke-width=".8" opacity=".7"/><line x1="288" y1="122" x2="288" y2="78" stroke="#c2503f" stroke-width=".8" opacity=".7"/><line x1="302" y1="122" x2="302" y2="79" stroke="#c2503f" stroke-width=".8" opacity=".7"/><line x1="316" y1="122" x2="316" y2="81" stroke="#c2503f" stroke-width=".8" opacity=".7"/><line x1="330" y1="122" x2="330" y2="85" stroke="#c2503f" stroke-width=".8" opacity=".7"/><line x1="344" y1="122" x2="344" y2="90" stroke="#c2503f" stroke-width=".8" opacity=".7"/><line x1="358" y1="122" x2="358" y2="97" stroke="#c2503f" stroke-width=".8" opacity=".7"/><line x1="372" y1="122" x2="372" y2="105" stroke="#c2503f" stroke-width=".8" opacity=".7"/><line x1="386" y1="122" x2="386" y2="113" stroke="#c2503f" stroke-width=".8" opacity=".7"/><path d="M0 300 V150 Q120 132 250 158 Q330 172 400 150 V300Z" fill="#d9a35f"/><rect x="-10" y="160" width="46" height="28" fill="#e8b7a0"/><polygon points="-12,160 38,160 13,148" fill="#b8482f"/><rect x="-4" y="168" width="6" height="9" fill="#3d5a7a" opacity=".85"/><rect x="8" y="168" width="6" height="9" fill="#3d5a7a" opacity=".85"/><rect x="20" y="168" width="6" height="9" fill="#3d5a7a" opacity=".85"/><rect x="38" y="158" width="38" height="23" fill="#f2e6cf"/><polygon points="36,158 78,158 57,146" fill="#c2503f"/><rect x="44" y="166" width="6" height="9" fill="#3d5a7a" opacity=".85"/><rect x="56" y="166" width="6" height="9" fill="#3d5a7a" opacity=".85"/><rect x="78" y="156" width="43" height="26" fill="#f0cdb0"/><polygon points="76,156 123,156 100,144" fill="#b8482f"/><rect x="84" y="164" width="6" height="9" fill="#3d5a7a" opacity=".85"/><rect x="96" y="164" width="6" height="9" fill="#3d5a7a" opacity=".85"/><rect x="108" y="164" width="6" height="9" fill="#3d5a7a" opacity=".85"/><rect x="123" y="154" width="42" height="24" fill="#f0cdb0"/><polygon points="121,154 167,154 144,142" fill="#c2503f"/><rect x="129" y="162" width="6" height="9" fill="#3d5a7a" opacity=".85"/><rect x="141" y="162" width="6" height="9" fill="#3d5a7a" opacity=".85"/><rect x="153" y="162" width="6" height="9" fill="#3d5a7a" opacity=".85"/><rect x="125" y="172" width="38" height="5" fill="#2f6aa8" opacity=".55"/><rect x="167" y="152" width="36" height="24" fill="#e2c98e"/><polygon points="165,152 205,152 185,140" fill="#cf6a4a"/><rect x="173" y="160" width="6" height="9" fill="#3d5a7a" opacity=".85"/><rect x="185" y="160" width="6" height="9" fill="#3d5a7a" opacity=".85"/><rect x="205" y="151" width="36" height="27" fill="#f0cdb0"/><polygon points="203,151 243,151 223,139" fill="#c2503f"/><rect x="211" y="159" width="6" height="9" fill="#3d5a7a" opacity=".85"/><rect x="223" y="159" width="6" height="9" fill="#3d5a7a" opacity=".85"/><rect x="243" y="149" width="32" height="26" fill="#d8e3d6"/><polygon points="241,149 277,149 259,137" fill="#c2503f"/><rect x="249" y="157" width="6" height="9" fill="#3d5a7a" opacity=".85"/><rect x="261" y="157" width="6" height="9" fill="#3d5a7a" opacity=".85"/><rect x="277" y="148" width="45" height="32" fill="#f0cdb0"/><polygon points="275,148 324,148 300,136" fill="#c2503f"/><rect x="283" y="156" width="6" height="9" fill="#3d5a7a" opacity=".85"/><rect x="295" y="156" width="6" height="9" fill="#3d5a7a" opacity=".85"/><rect x="307" y="156" width="6" height="9" fill="#3d5a7a" opacity=".85"/><rect x="324" y="145" width="43" height="30" fill="#e8b7a0"/><polygon points="322,145 369,145 346,133" fill="#c2503f"/><rect x="330" y="153" width="6" height="9" fill="#3d5a7a" opacity=".85"/><rect x="342" y="153" width="6" height="9" fill="#3d5a7a" opacity=".85"/><rect x="354" y="153" width="6" height="9" fill="#3d5a7a" opacity=".85"/><rect x="369" y="143" width="31" height="34" fill="#e2c98e"/><polygon points="367,143 402,143 384,131" fill="#b8482f"/><rect x="375" y="151" width="6" height="9" fill="#3d5a7a" opacity=".85"/><rect x="387" y="151" width="6" height="9" fill="#3d5a7a" opacity=".85"/><rect x="371" y="171" width="27" height="5" fill="#2f6aa8" opacity=".55"/><rect x="-10" y="184" width="45" height="27" fill="#f0cdb0"/><polygon points="-12,184 37,184 12,172" fill="#c2503f"/><rect x="-4" y="192" width="6" height="9" fill="#3d5a7a" opacity=".85"/><rect x="8" y="192" width="6" height="9" fill="#3d5a7a" opacity=".85"/><rect x="20" y="192" width="6" height="9" fill="#3d5a7a" opacity=".85"/><rect x="37" y="182" width="37" height="23" fill="#f0cdb0"/><polygon points="35,182 76,182 56,170" fill="#c2503f"/><rect x="43" y="190" width="6" height="9" fill="#3d5a7a" opacity=".85"/><rect x="55" y="190" width="6" height="9" fill="#3d5a7a" opacity=".85"/><rect x="76" y="181" width="46" height="27" fill="#f2e6cf"/><polygon points="74,181 124,181 99,169" fill="#b8482f"/><rect x="82" y="189" width="6" height="9" fill="#3d5a7a" opacity=".85"/><rect x="94" y="189" width="6" height="9" fill="#3d5a7a" opacity=".85"/><rect x="106" y="189" width="6" height="9" fill="#3d5a7a" opacity=".85"/><rect x="78" y="202" width="42" height="5" fill="#2f6aa8" opacity=".55"/><rect x="124" y="178" width="38" height="25" fill="#e2c98e"/><polygon points="122,178 164,178 143,166" fill="#cf6a4a"/><rect x="130" y="186" width="6" height="9" fill="#3d5a7a" opacity=".85"/><rect x="142" y="186" width="6" height="9" fill="#3d5a7a" opacity=".85"/><rect x="164" y="177" width="34" height="26" fill="#e2c98e"/><polygon points="162,177 200,177 181,165" fill="#b8482f"/><rect x="170" y="185" width="6" height="9" fill="#3d5a7a" opacity=".85"/><rect x="182" y="185" width="6" height="9" fill="#3d5a7a" opacity=".85"/><rect x="200" y="175" width="40" height="24" fill="#e8b7a0"/><polygon points="198,175 242,175 220,163" fill="#c2503f"/><rect x="206" y="183" width="6" height="9" fill="#3d5a7a" opacity=".85"/><rect x="218" y="183" width="6" height="9" fill="#3d5a7a" opacity=".85"/><rect x="230" y="183" width="6" height="9" fill="#3d5a7a" opacity=".85"/><rect x="242" y="173" width="38" height="27" fill="#f2e6cf"/><polygon points="240,173 282,173 261,161" fill="#c2503f"/><rect x="248" y="181" width="6" height="9" fill="#3d5a7a" opacity=".85"/><rect x="260" y="181" width="6" height="9" fill="#3d5a7a" opacity=".85"/><rect x="282" y="171" width="41" height="22" fill="#d8e3d6"/><polygon points="280,171 325,171 302,159" fill="#cf6a4a"/><rect x="288" y="179" width="6" height="9" fill="#3d5a7a" opacity=".85"/><rect x="300" y="179" width="6" height="9" fill="#3d5a7a" opacity=".85"/><rect x="312" y="179" width="6" height="9" fill="#3d5a7a" opacity=".85"/><rect x="325" y="169" width="31" height="33" fill="#f4d9a0"/><polygon points="323,169 358,169 340,157" fill="#b8482f"/><rect x="331" y="177" width="6" height="9" fill="#3d5a7a" opacity=".85"/><rect x="343" y="177" width="6" height="9" fill="#3d5a7a" opacity=".85"/><rect x="358" y="168" width="45" height="22" fill="#f0cdb0"/><polygon points="356,168 405,168 380,156" fill="#cf6a4a"/><rect x="364" y="176" width="6" height="9" fill="#3d5a7a" opacity=".85"/><rect x="376" y="176" width="6" height="9" fill="#3d5a7a" opacity=".85"/><rect x="388" y="176" width="6" height="9" fill="#3d5a7a" opacity=".85"/><rect x="-10" y="208" width="34" height="28" fill="#d8e3d6"/><polygon points="-12,208 26,208 7,196" fill="#cf6a4a"/><rect x="-4" y="216" width="6" height="9" fill="#3d5a7a" opacity=".85"/><rect x="8" y="216" width="6" height="9" fill="#3d5a7a" opacity=".85"/><rect x="26" y="207" width="42" height="24" fill="#f4d9a0"/><polygon points="24,207 70,207 47,195" fill="#b8482f"/><rect x="32" y="215" width="6" height="9" fill="#3d5a7a" opacity=".85"/><rect x="44" y="215" width="6" height="9" fill="#3d5a7a" opacity=".85"/><rect x="56" y="215" width="6" height="9" fill="#3d5a7a" opacity=".85"/><rect x="70" y="205" width="33" height="25" fill="#f2e6cf"/><polygon points="68,205 105,205 86,193" fill="#cf6a4a"/><rect x="76" y="213" width="6" height="9" fill="#3d5a7a" opacity=".85"/><rect x="88" y="213" width="6" height="9" fill="#3d5a7a" opacity=".85"/><rect x="105" y="203" width="40" height="34" fill="#e8b7a0"/><polygon points="103,203 147,203 125,191" fill="#c2503f"/><rect x="111" y="211" width="6" height="9" fill="#3d5a7a" opacity=".85"/><rect x="123" y="211" width="6" height="9" fill="#3d5a7a" opacity=".85"/><rect x="135" y="211" width="6" height="9" fill="#3d5a7a" opacity=".85"/><rect x="107" y="231" width="36" height="5" fill="#2f6aa8" opacity=".55"/><rect x="147" y="201" width="43" height="23" fill="#e2c98e"/><polygon points="145,201 192,201 168,189" fill="#b8482f"/><rect x="153" y="209" width="6" height="9" fill="#3d5a7a" opacity=".85"/><rect x="165" y="209" width="6" height="9" fill="#3d5a7a" opacity=".85"/><rect x="177" y="209" width="6" height="9" fill="#3d5a7a" opacity=".85"/><rect x="192" y="199" width="42" height="29" fill="#f2e6cf"/><polygon points="190,199 236,199 213,187" fill="#cf6a4a"/><rect x="198" y="207" width="6" height="9" fill="#3d5a7a" opacity=".85"/><rect x="210" y="207" width="6" height="9" fill="#3d5a7a" opacity=".85"/><rect x="222" y="207" width="6" height="9" fill="#3d5a7a" opacity=".85"/><rect x="194" y="222" width="38" height="5" fill="#2f6aa8" opacity=".55"/><rect x="236" y="197" width="37" height="25" fill="#f0cdb0"/><polygon points="234,197 275,197 254,185" fill="#b8482f"/><rect x="242" y="205" width="6" height="9" fill="#3d5a7a" opacity=".85"/><rect x="254" y="205" width="6" height="9" fill="#3d5a7a" opacity=".85"/><rect x="275" y="196" width="39" height="22" fill="#e2c98e"/><polygon points="273,196 316,196 294,184" fill="#b8482f"/><rect x="281" y="204" width="6" height="9" fill="#3d5a7a" opacity=".85"/><rect x="293" y="204" width="6" height="9" fill="#3d5a7a" opacity=".85"/><rect x="305" y="204" width="6" height="9" fill="#3d5a7a" opacity=".85"/><rect x="316" y="194" width="45" height="25" fill="#f0cdb0"/><polygon points="314,194 363,194 338,182" fill="#b8482f"/><rect x="322" y="202" width="6" height="9" fill="#3d5a7a" opacity=".85"/><rect x="334" y="202" width="6" height="9" fill="#3d5a7a" opacity=".85"/><rect x="346" y="202" width="6" height="9" fill="#3d5a7a" opacity=".85"/><rect x="363" y="192" width="44" height="23" fill="#d8e3d6"/><polygon points="361,192 409,192 385,180" fill="#c2503f"/><rect x="369" y="200" width="6" height="9" fill="#3d5a7a" opacity=".85"/><rect x="381" y="200" width="6" height="9" fill="#3d5a7a" opacity=".85"/><rect x="393" y="200" width="6" height="9" fill="#3d5a7a" opacity=".85"/><rect x="365" y="209" width="40" height="5" fill="#2f6aa8" opacity=".55"/><rect x="-10" y="232" width="40" height="25" fill="#e8b7a0"/><polygon points="-12,232 32,232 10,220" fill="#cf6a4a"/><rect x="-4" y="240" width="6" height="9" fill="#3d5a7a" opacity=".85"/><rect x="8" y="240" width="6" height="9" fill="#3d5a7a" opacity=".85"/><rect x="20" y="240" width="6" height="9" fill="#3d5a7a" opacity=".85"/><rect x="-8" y="251" width="36" height="5" fill="#2f6aa8" opacity=".55"/><rect x="32" y="231" width="46" height="28" fill="#f2e6cf"/><polygon points="30,231 80,231 55,219" fill="#b8482f"/><rect x="38" y="239" width="6" height="9" fill="#3d5a7a" opacity=".85"/><rect x="50" y="239" width="6" height="9" fill="#3d5a7a" opacity=".85"/><rect x="62" y="239" width="6" height="9" fill="#3d5a7a" opacity=".85"/><rect x="80" y="228" width="35" height="30" fill="#f4d9a0"/><polygon points="78,228 117,228 98,216" fill="#cf6a4a"/><rect x="86" y="236" width="6" height="9" fill="#3d5a7a" opacity=".85"/><rect x="98" y="236" width="6" height="9" fill="#3d5a7a" opacity=".85"/><rect x="117" y="227" width="35" height="34" fill="#f4d9a0"/><polygon points="115,227 154,227 134,215" fill="#b8482f"/><rect x="123" y="235" width="6" height="9" fill="#3d5a7a" opacity=".85"/><rect x="135" y="235" width="6" height="9" fill="#3d5a7a" opacity=".85"/><rect x="154" y="225" width="44" height="31" fill="#f2e6cf"/><polygon points="152,225 200,225 176,213" fill="#cf6a4a"/><rect x="160" y="233" width="6" height="9" fill="#3d5a7a" opacity=".85"/><rect x="172" y="233" width="6" height="9" fill="#3d5a7a" opacity=".85"/><rect x="184" y="233" width="6" height="9" fill="#3d5a7a" opacity=".85"/><rect x="156" y="250" width="40" height="5" fill="#2f6aa8" opacity=".55"/><rect x="200" y="223" width="30" height="25" fill="#f0cdb0"/><polygon points="198,223 232,223 215,211" fill="#cf6a4a"/><rect x="206" y="231" width="6" height="9" fill="#3d5a7a" opacity=".85"/><rect x="218" y="231" width="6" height="9" fill="#3d5a7a" opacity=".85"/><rect x="232" y="222" width="35" height="29" fill="#d8e3d6"/><polygon points="230,222 269,222 250,210" fill="#b8482f"/><rect x="238" y="230" width="6" height="9" fill="#3d5a7a" opacity=".85"/><rect x="250" y="230" width="6" height="9" fill="#3d5a7a" opacity=".85"/><rect x="269" y="220" width="34" height="30" fill="#f0cdb0"/><polygon points="267,220 305,220 286,208" fill="#b8482f"/><rect x="275" y="228" width="6" height="9" fill="#3d5a7a" opacity=".85"/><rect x="287" y="228" width="6" height="9" fill="#3d5a7a" opacity=".85"/><rect x="305" y="218" width="39" height="26" fill="#f4d9a0"/><polygon points="303,218 346,218 324,206" fill="#c2503f"/><rect x="311" y="226" width="6" height="9" fill="#3d5a7a" opacity=".85"/><rect x="323" y="226" width="6" height="9" fill="#3d5a7a" opacity=".85"/><rect x="335" y="226" width="6" height="9" fill="#3d5a7a" opacity=".85"/><rect x="346" y="216" width="44" height="27" fill="#e8b7a0"/><polygon points="344,216 392,216 368,204" fill="#c2503f"/><rect x="352" y="224" width="6" height="9" fill="#3d5a7a" opacity=".85"/><rect x="364" y="224" width="6" height="9" fill="#3d5a7a" opacity=".85"/><rect x="376" y="224" width="6" height="9" fill="#3d5a7a" opacity=".85"/><rect x="348" y="237" width="40" height="5" fill="#2f6aa8" opacity=".55"/><rect x="392" y="214" width="33" height="30" fill="#e2c98e"/><polygon points="390,214 427,214 408,202" fill="#cf6a4a"/><rect x="398" y="222" width="6" height="9" fill="#3d5a7a" opacity=".85"/><rect x="410" y="222" width="6" height="9" fill="#3d5a7a" opacity=".85"/><rect x="394" y="238" width="29" height="5" fill="#2f6aa8" opacity=".55"/><rect x="-10" y="256" width="33" height="29" fill="#e2c98e"/><polygon points="-12,256 25,256 6,244" fill="#b8482f"/><rect x="-4" y="264" width="6" height="9" fill="#3d5a7a" opacity=".85"/><rect x="8" y="264" width="6" height="9" fill="#3d5a7a" opacity=".85"/><rect x="25" y="255" width="33" height="34" fill="#f2e6cf"/><polygon points="23,255 60,255 42,243" fill="#b8482f"/><rect x="31" y="263" width="6" height="9" fill="#3d5a7a" opacity=".85"/><rect x="43" y="263" width="6" height="9" fill="#3d5a7a" opacity=".85"/><rect x="60" y="253" width="37" height="32" fill="#f2e6cf"/><polygon points="58,253 99,253 78,241" fill="#b8482f"/><rect x="66" y="261" width="6" height="9" fill="#3d5a7a" opacity=".85"/><rect x="78" y="261" width="6" height="9" fill="#3d5a7a" opacity=".85"/><rect x="99" y="252" width="43" height="22" fill="#e2c98e"/><polygon points="97,252 144,252 120,240" fill="#cf6a4a"/><rect x="105" y="260" width="6" height="9" fill="#3d5a7a" opacity=".85"/><rect x="117" y="260" width="6" height="9" fill="#3d5a7a" opacity=".85"/><rect x="129" y="260" width="6" height="9" fill="#3d5a7a" opacity=".85"/><rect x="101" y="268" width="39" height="5" fill="#2f6aa8" opacity=".55"/><rect x="144" y="250" width="38" height="26" fill="#e8b7a0"/><polygon points="142,250 184,250 163,238" fill="#b8482f"/><rect x="150" y="258" width="6" height="9" fill="#3d5a7a" opacity=".85"/><rect x="162" y="258" width="6" height="9" fill="#3d5a7a" opacity=".85"/><rect x="184" y="248" width="43" height="28" fill="#f2e6cf"/><polygon points="182,248 229,248 206,236" fill="#cf6a4a"/><rect x="190" y="256" width="6" height="9" fill="#3d5a7a" opacity=".85"/><rect x="202" y="256" width="6" height="9" fill="#3d5a7a" opacity=".85"/><rect x="214" y="256" width="6" height="9" fill="#3d5a7a" opacity=".85"/><rect x="229" y="246" width="40" height="23" fill="#e2c98e"/><polygon points="227,246 271,246 249,234" fill="#c2503f"/><rect x="235" y="254" width="6" height="9" fill="#3d5a7a" opacity=".85"/><rect x="247" y="254" width="6" height="9" fill="#3d5a7a" opacity=".85"/><rect x="259" y="254" width="6" height="9" fill="#3d5a7a" opacity=".85"/><rect x="271" y="244" width="39" height="27" fill="#e8b7a0"/><polygon points="269,244 312,244 290,232" fill="#c2503f"/><rect x="277" y="252" width="6" height="9" fill="#3d5a7a" opacity=".85"/><rect x="289" y="252" width="6" height="9" fill="#3d5a7a" opacity=".85"/><rect x="301" y="252" width="6" height="9" fill="#3d5a7a" opacity=".85"/><rect x="312" y="242" width="37" height="29" fill="#e8b7a0"/><polygon points="310,242 351,242 330,230" fill="#b8482f"/><rect x="318" y="250" width="6" height="9" fill="#3d5a7a" opacity=".85"/><rect x="330" y="250" width="6" height="9" fill="#3d5a7a" opacity=".85"/><rect x="314" y="265" width="33" height="5" fill="#2f6aa8" opacity=".55"/><rect x="351" y="240" width="37" height="23" fill="#e2c98e"/><polygon points="349,240 390,240 370,228" fill="#b8482f"/><rect x="357" y="248" width="6" height="9" fill="#3d5a7a" opacity=".85"/><rect x="369" y="248" width="6" height="9" fill="#3d5a7a" opacity=".85"/><rect x="390" y="238" width="36" height="29" fill="#e8b7a0"/><polygon points="388,238 428,238 408,226" fill="#c2503f"/><rect x="396" y="246" width="6" height="9" fill="#3d5a7a" opacity=".85"/><rect x="408" y="246" width="6" height="9" fill="#3d5a7a" opacity=".85"/><rect x="392" y="261" width="32" height="5" fill="#2f6aa8" opacity=".55"/><rect x="-10" y="280" width="34" height="34" fill="#e8b7a0"/><polygon points="-12,280 26,280 7,268" fill="#c2503f"/><rect x="-4" y="288" width="6" height="9" fill="#3d5a7a" opacity=".85"/><rect x="8" y="288" width="6" height="9" fill="#3d5a7a" opacity=".85"/><rect x="26" y="279" width="46" height="28" fill="#f0cdb0"/><polygon points="24,279 74,279 49,267" fill="#cf6a4a"/><rect x="32" y="287" width="6" height="9" fill="#3d5a7a" opacity=".85"/><rect x="44" y="287" width="6" height="9" fill="#3d5a7a" opacity=".85"/><rect x="56" y="287" width="6" height="9" fill="#3d5a7a" opacity=".85"/><rect x="74" y="277" width="34" height="32" fill="#f0cdb0"/><polygon points="72,277 110,277 91,265" fill="#c2503f"/><rect x="80" y="285" width="6" height="9" fill="#3d5a7a" opacity=".85"/><rect x="92" y="285" width="6" height="9" fill="#3d5a7a" opacity=".85"/><rect x="76" y="303" width="30" height="5" fill="#2f6aa8" opacity=".55"/><rect x="110" y="275" width="40" height="29" fill="#e8b7a0"/><polygon points="108,275 152,275 130,263" fill="#b8482f"/><rect x="116" y="283" width="6" height="9" fill="#3d5a7a" opacity=".85"/><rect x="128" y="283" width="6" height="9" fill="#3d5a7a" opacity=".85"/><rect x="140" y="283" width="6" height="9" fill="#3d5a7a" opacity=".85"/><rect x="112" y="298" width="36" height="5" fill="#2f6aa8" opacity=".55"/><rect x="152" y="273" width="37" height="24" fill="#e2c98e"/><polygon points="150,273 191,273 170,261" fill="#c2503f"/><rect x="158" y="281" width="6" height="9" fill="#3d5a7a" opacity=".85"/><rect x="170" y="281" width="6" height="9" fill="#3d5a7a" opacity=".85"/><rect x="191" y="271" width="43" height="30" fill="#e8b7a0"/><polygon points="189,271 236,271 212,259" fill="#cf6a4a"/><rect x="197" y="279" width="6" height="9" fill="#3d5a7a" opacity=".85"/><rect x="209" y="279" width="6" height="9" fill="#3d5a7a" opacity=".85"/><rect x="221" y="279" width="6" height="9" fill="#3d5a7a" opacity=".85"/><rect x="236" y="269" width="46" height="34" fill="#f4d9a0"/><polygon points="234,269 284,269 259,257" fill="#b8482f"/><rect x="242" y="277" width="6" height="9" fill="#3d5a7a" opacity=".85"/><rect x="254" y="277" width="6" height="9" fill="#3d5a7a" opacity=".85"/><rect x="266" y="277" width="6" height="9" fill="#3d5a7a" opacity=".85"/><rect x="284" y="267" width="45" height="26" fill="#f0cdb0"/><polygon points="282,267 331,267 306,255" fill="#c2503f"/><rect x="290" y="275" width="6" height="9" fill="#3d5a7a" opacity=".85"/><rect x="302" y="275" width="6" height="9" fill="#3d5a7a" opacity=".85"/><rect x="314" y="275" width="6" height="9" fill="#3d5a7a" opacity=".85"/><rect x="331" y="265" width="33" height="27" fill="#d8e3d6"/><polygon points="329,265 366,265 348,253" fill="#c2503f"/><rect x="337" y="273" width="6" height="9" fill="#3d5a7a" opacity=".85"/><rect x="349" y="273" width="6" height="9" fill="#3d5a7a" opacity=".85"/><rect x="366" y="264" width="46" height="28" fill="#f4d9a0"/><polygon points="364,264 414,264 389,252" fill="#c2503f"/><rect x="372" y="272" width="6" height="9" fill="#3d5a7a" opacity=".85"/><rect x="384" y="272" width="6" height="9" fill="#3d5a7a" opacity=".85"/><rect x="396" y="272" width="6" height="9" fill="#3d5a7a" opacity=".85"/><rect x="368" y="286" width="42" height="5" fill="#2f6aa8" opacity=".55"/><path d="M0 262 L400 236 V300 H0Z" fill="#8f8577"/><path d="M0 262 L400 236" stroke="#6e655a" stroke-width="3"/><rect x="4" y="270" width="16" height="3" fill="#a79d8e" opacity=".6"/><rect x="25" y="277" width="16" height="3" fill="#a79d8e" opacity=".6"/><rect x="52" y="285" width="16" height="3" fill="#a79d8e" opacity=".6"/><rect x="77" y="268" width="16" height="3" fill="#a79d8e" opacity=".6"/><rect x="103" y="276" width="16" height="3" fill="#a79d8e" opacity=".6"/><rect x="125" y="283" width="16" height="3" fill="#a79d8e" opacity=".6"/><rect x="146" y="266" width="16" height="3" fill="#a79d8e" opacity=".6"/><rect x="170" y="274" width="16" height="3" fill="#a79d8e" opacity=".6"/><rect x="196" y="281" width="16" height="3" fill="#a79d8e" opacity=".6"/><rect x="220" y="265" width="16" height="3" fill="#a79d8e" opacity=".6"/><rect x="246" y="272" width="16" height="3" fill="#a79d8e" opacity=".6"/><rect x="269" y="279" width="16" height="3" fill="#a79d8e" opacity=".6"/><rect x="296" y="263" width="16" height="3" fill="#a79d8e" opacity=".6"/><rect x="314" y="270" width="16" height="3" fill="#a79d8e" opacity=".6"/><rect x="342" y="278" width="16" height="3" fill="#a79d8e" opacity=".6"/><rect x="361" y="261" width="16" height="3" fill="#a79d8e" opacity=".6"/><rect x="388" y="268" width="16" height="3" fill="#a79d8e" opacity=".6"/><rect x="411" y="276" width="16" height="3" fill="#a79d8e" opacity=".6"/><g transform="translate(96 178) rotate(-3.6)"><rect width="150" height="66" rx="8" fill="#f2c230"/><rect y="40" width="150" height="26" rx="4" fill="#e0ad1c"/><rect x="0" y="34" width="150" height="4" fill="#fff8de"/><rect x="12" y="10" width="20" height="22" rx="3" fill="#2e4f66"/><rect x="14" y="12" width="6" height="8" fill="#9dc4d8" opacity=".7"/><rect x="39" y="10" width="20" height="22" rx="3" fill="#2e4f66"/><rect x="41" y="12" width="6" height="8" fill="#9dc4d8" opacity=".7"/><rect x="66" y="10" width="20" height="22" rx="3" fill="#2e4f66"/><rect x="68" y="12" width="6" height="8" fill="#9dc4d8" opacity=".7"/><rect x="93" y="10" width="20" height="22" rx="3" fill="#2e4f66"/><rect x="95" y="12" width="6" height="8" fill="#9dc4d8" opacity=".7"/><rect x="120" y="10" width="20" height="22" rx="3" fill="#2e4f66"/><rect x="122" y="12" width="6" height="8" fill="#9dc4d8" opacity=".7"/><rect x="132" y="8" width="12" height="28" rx="3" fill="#2e4f66"/><line x1="70" y1="0" x2="82" y2="-34" stroke="#3a3a3a" stroke-width="2.5"/><line x1="60" y1="-34" x2="110" y2="-34" stroke="#3a3a3a" stroke-width="2"/><circle cx="30" cy="68" r="8" fill="#2a2a2a"/><circle cx="118" cy="68" r="8" fill="#2a2a2a"/></g></svg>